<svg version="1.0" xmlns="http://www.w3.org/2000/svg" width="406.667" height="438.667" viewBox="0 0 305 329"><path d="M6 61.3c1.9 1.2 4.3 3.8 5.4 5.7 2.1 3.4 2.1 4.8 2.4 87.9.2 72.5 0 85.2-1.2 89.6-1.4 4.7-4.2 8.4-9.1 12-1.8 1.3 1 1.4 24.4 1.5h26.4l-3.3-2.3c-4.6-3.1-7.1-6.7-8.1-11.8-1.1-5.9-1.1-60.4 0-65.3 2.7-11.2 15.6-17.9 39.6-20.3l7-.7-11.7-1.2c-21.5-2.2-32-7.3-34.7-16.9-.7-2.5-1.1-14.8-1.1-32.7 0-27 .1-29.1 2.2-34.5 1.2-3.3 3.7-7.4 5.8-9.6l3.8-3.7H2.7L6 61.3zm184.5-.2c-32.1 4.6-61.2 26.7-75.6 57.3-14.6 31.3-10.8 70.4 9.6 99.1 5.9 8.2 18.5 20.3 27.2 25.9 13.1 8.4 28.2 13.7 44.6 15.5 8.3 1 25.4.4 24.2-.7-.3-.3-3.8-1.4-7.8-2.4-8.9-2.2-22.1-8.5-30.1-14.2-7.5-5.3-18.9-17.2-24.6-25.6-21.6-31.8-25-75.3-8.5-108 10.7-21.2 29.9-38.2 52-46.1l5-1.8-5 .1c-2.7 0-7.7.4-11 .9zm43.5 1.2c22.9 6.9 39.9 22.2 46.1 41.6l1.8 5.6V84.7L282 60l-27.7.1h-27.8l7.5 2.2zm9.3 97.8c2 1.1 4.9 3.8 6.5 6.1l2.7 4.2.3 51.5c.4 72.7-.7 79.7-14.9 94.3-3.5 3.5-8.1 7-12 8.9l-6.4 3.1 4.8-.7c6.6-.9 14.8-3.8 22.6-8.1 8.9-4.9 24.4-20.6 29-29.3 6-11.4 6.1-12 6.1-63.7 0-55-.1-54.4 8.7-63.2l5.2-5.2h-28.2l-28.2.1 3.8 2zm-26.5 168.6c.7.3 1.6.2 1.9-.1.4-.3-.2-.6-1.3-.5-1.1 0-1.4.3-.6.6z"/></svg>