<svg width="42" height="33" fill="none" xmlns="http://www.w3.org/2000/svg"><path d="M41.571 20.8v-.498h-.129l-.15.341-.148-.341h-.13v.497h.091v-.375l.14.324h.095l.14-.325v.376h.091zm-.82 0v-.414h.166v-.084h-.423v.084h.166v.413h.091z" fill="#0099DF"/><path d="M26.878 22.941H15.694V2.753h11.184V22.94z" fill="#6C6BBD"/><path d="M16.41 12.845c0-4.095 1.91-7.743 4.882-10.094a12.692 12.692 0 00-7.9-2.745C6.335.006.613 5.754.613 12.846c0 7.09 5.722 12.84 12.78 12.84 2.982 0 5.726-1.027 7.9-2.746a12.838 12.838 0 01-4.882-10.095z" fill="#EB001B"/><path d="M41.961 12.845c0 7.092-5.722 12.84-12.781 12.84a12.695 12.695 0 01-7.9-2.745 12.836 12.836 0 004.882-10.095c0-4.095-1.909-7.743-4.883-10.094a12.695 12.695 0 017.9-2.745c7.06 0 12.782 5.748 12.782 12.84z" fill="#0099DF"/><path d="M30.649 28.642c.148 0 .362.029.525.093l-.227.7a1.192 1.192 0 00-.462-.086c-.482 0-.724.313-.724.876v1.912h-.739v-3.409h.732v.414c.192-.3.469-.5.895-.5zm-2.73.764h-1.206v1.54c0 .342.12.57.49.57.192 0 .433-.064.652-.192l.213.634c-.234.164-.603.265-.922.265-.874 0-1.178-.471-1.178-1.263v-1.554h-.69v-.678h.69v-1.034h.745v1.034h1.207v.678zm-9.45.727c.079-.492.376-.828.902-.828.475 0 .78.3.859.828h-1.761zm2.528.3c-.007-1.063-.66-1.79-1.612-1.79-.994 0-1.69.727-1.69 1.79 0 1.083.724 1.789 1.74 1.789.511 0 .98-.128 1.391-.478l-.362-.549a1.61 1.61 0 01-.987.357c-.475 0-.908-.221-1.015-.834h2.52c.008-.094.015-.186.015-.285zm3.244-.835a2.17 2.17 0 00-1.057-.293c-.405 0-.646.15-.646.4 0 .228.255.293.575.335l.347.05c.74.108 1.186.421 1.186 1.02 0 .65-.568 1.113-1.547 1.113-.555 0-1.066-.143-1.47-.443l.347-.578c.249.193.619.357 1.13.357.504 0 .774-.15.774-.414 0-.192-.192-.3-.597-.356l-.348-.05c-.76-.107-1.172-.45-1.172-1.005 0-.678.555-1.092 1.414-1.092.54 0 1.03.122 1.384.357l-.32.6zm9.107-.251c-.152 0-.293.027-.424.08a1.016 1.016 0 00-.562.572 1.177 1.177 0 00-.081.445c0 .163.026.31.08.445a1.013 1.013 0 00.562.572c.132.054.273.08.425.08.151 0 .293-.026.423-.08a1.013 1.013 0 00.566-.572c.055-.135.082-.282.082-.445 0-.162-.027-.31-.082-.445a1.016 1.016 0 00-.566-.572 1.113 1.113 0 00-.423-.08zm0-.705c.263 0 .507.046.731.138a1.736 1.736 0 01.966.949c.093.22.14.458.14.715 0 .257-.047.495-.14.715a1.74 1.74 0 01-.966.95 1.92 1.92 0 01-.731.137 1.92 1.92 0 01-.732-.138 1.769 1.769 0 01-.58-.378 1.757 1.757 0 01-.382-.57 1.821 1.821 0 01-.14-.716c0-.257.047-.495.14-.715.093-.219.22-.409.383-.57.162-.16.355-.287.58-.379.223-.092.467-.138.73-.138zm-19.193 1.79c0-.599.39-1.09 1.03-1.09.61 0 1.022.47 1.022 1.09 0 .621-.412 1.091-1.022 1.091-.64 0-1.03-.491-1.03-1.09zm2.748 0v-1.704h-.738v.414c-.235-.307-.59-.5-1.072-.5-.952 0-1.697.749-1.697 1.79s.745 1.79 1.697 1.79c.483 0 .837-.192 1.072-.499v.414h.738v-1.704zm-4.16 1.705v-2.14c0-.805-.512-1.347-1.335-1.355-.433-.007-.88.129-1.193.607-.234-.378-.604-.607-1.122-.607-.362 0-.717.107-.994.507v-.42H7.36v3.408h.745v-1.89c0-.591.327-.906.83-.906.49 0 .74.321.74.899v1.897h.745v-1.89c0-.591.341-.906.83-.906.505 0 .746.321.746.899v1.897h.745zm23.237-.256v.084h.077a.075.075 0 00.041-.01.036.036 0 00.017-.032.034.034 0 00-.017-.03.07.07 0 00-.041-.012h-.077zm.078-.058c.04 0 .07.009.093.027a.09.09 0 01.032.073.085.085 0 01-.026.065.13.13 0 01-.074.03l.102.119h-.08l-.094-.118h-.031v.118h-.067v-.314h.145zm-.02.422a.26.26 0 00.101-.02.267.267 0 00.14-.141.27.27 0 00-.057-.29.252.252 0 00-.083-.055.245.245 0 00-.102-.02.256.256 0 00-.103.02.25.25 0 00-.14.14.255.255 0 00-.02.102.27.27 0 00.02.103.247.247 0 00.14.14c.032.014.067.02.104.02zm0-.603a.33.33 0 01.133.027.336.336 0 01.11.55.351.351 0 01-.243.1.343.343 0 01-.346-.338.33.33 0 01.21-.312.343.343 0 01.136-.027" fill="#231F20"/></svg>